<?xml version="1.0" encoding="UTF-8" standalone="no"?><!DOCTYPE svg PUBLIC "-//W3C//DTD SVG 1.1//EN" "http://www.w3.org/Graphics/SVG/1.1/DTD/svg11.dtd"><svg width="100%" height="100%" viewBox="0 0 2537 2537" version="1.1" xmlns="http://www.w3.org/2000/svg" xmlns:xlink="http://www.w3.org/1999/xlink" xml:space="preserve" xmlns:serif="http://www.serif.com/" style="fill-rule:evenodd;clip-rule:evenodd;stroke-linejoin:round;stroke-miterlimit:2;"><g id="Layer-1" serif:id="Layer 1"><path id="path4275-3" d="M18.333,1786.1l-0,-1035.53l732.233,-732.234l1035.53,0l732.234,732.234l-0.001,1035.53l-732.233,732.234l-1035.53,0.001l-732.233,-732.235Z" style="fill:#fff;fill-rule:nonzero;"/><path id="path835" d="M793.714,122.501l949.238,-0l671.215,671.214l-0,949.238l-671.215,671.215l-949.238,-0l-671.215,-671.215l-0,-949.238l671.215,-671.214Z" style="fill:#e20a16;fill-rule:nonzero;"/><g id="text18"><path id="path921" d="M749.246,1085.84l-123.273,-0l0,-27.797c0,-28.2 -6.849,-52.371 -20.546,-72.514c-12.891,-20.949 -35.048,-31.423 -66.471,-31.423c-16.919,0 -31.019,3.223 -42.299,9.669c-10.475,6.445 -18.934,14.905 -25.38,25.38c-5.64,9.668 -9.669,21.351 -12.086,35.048c-2.417,12.891 -3.625,26.588 -3.625,41.091c-0,16.92 0.402,31.423 1.208,43.508c1.612,11.28 4.834,21.352 9.669,30.214c4.834,8.058 11.682,15.309 20.545,21.755c9.669,6.445 22.56,12.891 38.674,19.337l94.268,37.465c27.394,10.474 49.551,22.963 66.471,37.466c16.92,13.696 29.811,30.214 38.674,49.551c9.669,18.531 16.114,40.285 19.337,65.262c3.223,24.171 4.834,51.968 4.834,83.391c0,36.257 -3.625,70.096 -10.877,101.519c-7.251,30.617 -19.337,57.206 -36.256,79.766c-16.115,21.754 -37.869,39.077 -65.263,51.968c-27.394,12.891 -60.831,19.337 -100.311,19.337c-29.811,-0 -57.608,-5.237 -83.391,-15.712c-25.782,-10.474 -47.939,-24.574 -66.471,-42.299c-18.531,-18.532 -33.436,-40.286 -44.716,-65.263c-10.475,-24.977 -15.712,-51.968 -15.712,-80.973l0,-45.926l123.274,0l-0,38.674c-0,22.56 6.445,43.106 19.337,61.637c13.697,17.726 36.257,26.588 67.679,26.588c20.949,0 37.063,-2.82 48.343,-8.46c12.085,-6.445 20.948,-14.905 26.588,-25.38c6.446,-11.279 10.474,-24.976 12.086,-41.091c1.611,-16.114 2.417,-33.84 2.417,-53.177c0,-22.559 -0.806,-41.091 -2.417,-55.593c-1.612,-14.503 -5.237,-26.186 -10.877,-35.049c-4.834,-8.862 -12.086,-16.114 -21.754,-21.754c-8.863,-5.64 -20.949,-11.683 -36.257,-18.128l-88.225,-36.257c-53.177,-21.754 -89.031,-50.357 -107.563,-85.808c-17.725,-36.257 -26.588,-81.377 -26.588,-135.359c0,-32.229 4.431,-62.846 13.294,-91.851c8.863,-29.006 21.754,-53.983 38.674,-74.931c17.726,-20.949 39.883,-37.466 66.471,-49.551c26.589,-12.892 57.608,-19.337 93.06,-19.337c30.617,-0 58.414,5.64 83.391,16.92c25.782,11.28 47.536,26.185 65.262,44.716c18.531,18.532 32.631,39.48 42.3,62.846c9.668,22.56 14.502,45.925 14.502,70.096l0,60.429Z" style="fill:#fff;fill-rule:nonzero;"/><path id="path923" d="M945.901,954.108l-142.61,0l-0,-116.022l408.494,-0l0,116.022l-142.61,0l-0,744.475l-123.274,0l0,-744.475Z" style="fill:#fff;fill-rule:nonzero;"/><path id="path925" d="M1268.33,1041.12c-0,-34.646 6.042,-65.263 18.128,-91.851c12.086,-26.588 27.797,-48.343 47.134,-65.263c20.143,-17.725 42.3,-31.019 66.471,-39.882c24.977,-8.863 49.954,-13.294 74.931,-13.294c24.977,-0 49.551,4.431 73.722,13.294c24.977,8.863 47.134,22.157 66.471,39.882c20.143,16.92 36.257,38.675 48.343,65.263c12.085,26.588 18.128,57.205 18.128,91.851l0,454.42c0,35.451 -6.043,66.471 -18.128,93.059c-12.086,25.783 -28.2,47.537 -48.343,65.263c-19.337,16.919 -41.494,29.811 -66.471,38.674c-24.171,8.862 -48.745,13.294 -73.722,13.294c-24.977,-0 -49.954,-4.432 -74.931,-13.294c-24.171,-8.863 -46.328,-21.755 -66.471,-38.674c-19.337,-17.726 -35.048,-39.48 -47.134,-65.263c-12.086,-26.588 -18.128,-57.608 -18.128,-93.059l-0,-454.42Zm123.273,454.42c0,29.811 8.057,51.968 24.171,66.471c16.92,13.697 36.66,20.545 59.22,20.545c22.56,0 41.897,-6.848 58.011,-20.545c16.92,-14.503 25.38,-36.66 25.38,-66.471l-0,-454.42c-0,-29.811 -8.46,-51.566 -25.38,-65.263c-16.114,-14.503 -35.451,-21.754 -58.011,-21.754c-22.56,0 -42.3,7.251 -59.22,21.754c-16.114,13.697 -24.171,35.452 -24.171,65.263l0,454.42Z" style="fill:#fff;fill-rule:nonzero;"/><path id="path927" d="M1813.72,838.086l184.91,-0c33.84,-0 63.651,4.431 89.434,13.295c25.783,8.862 49.148,24.574 70.097,47.133c20.948,22.56 35.451,49.149 43.508,79.766c8.057,29.811 12.085,70.499 12.085,122.064c0,37.869 -2.417,70.5 -7.251,97.894c-4.028,26.588 -13.294,51.565 -27.797,74.931c-16.92,28.2 -39.48,50.357 -67.679,66.471c-28.2,15.308 -65.263,22.963 -111.188,22.963l-62.846,-0l0,335.98l-123.273,0l-0,-860.497Zm123.273,408.495l59.22,-0c24.977,-0 44.314,-3.626 58.011,-10.878c13.697,-7.251 23.768,-16.919 30.214,-29.005c6.446,-12.891 10.072,-28.2 10.877,-45.925c1.612,-17.726 2.417,-37.466 2.417,-59.22c0,-20.143 -0.805,-39.077 -2.417,-56.802c-0.805,-18.532 -4.431,-34.243 -10.877,-47.135c-5.64,-13.697 -14.905,-24.171 -27.797,-31.422c-12.891,-8.057 -31.422,-12.086 -55.594,-12.086l-64.054,0l0,292.473Z" style="fill:#fff;fill-rule:nonzero;"/></g></g></svg>