<?xml version="1.0" encoding="UTF-8"?>
<!-- Generator: Adobe Illustrator 21.1.0, SVG Export Plug-In . SVG Version: 6.00 Build 0)  -->
<svg version="1.1" id="Capa_1" xmlns="http://www.w3.org/2000/svg" xmlns:xlink="http://www.w3.org/1999/xlink" x="0px" y="0px" viewBox="0 0 1968 334.2" style="enable-background:new 0 0 1968 334.2;" xml:space="preserve">
<style type="text/css">
	.st0{fill:#383838;}
</style>
<g>
	<g>
		<polygon class="st0" points="1226,114 1193.5,114 1193.5,78 1162.9,78 1162.9,256.1 1193.5,256.1 1193.5,140.6 1226,140.6     1226,256.1 1256.6,256.1 1256.6,78 1226,78   "/>
		<polygon class="st0" points="1113.5,78 1082.9,78 1082.9,256.1 1140,256.1 1140,229.5 1113.5,229.5   "/>
		<polygon class="st0" points="1464.7,173 1464.2,173 1445.5,78 1398.4,78 1398.4,256.1 1428.9,256.1 1428.9,123.1 1429.4,123.1     1451.1,229.5 1477.6,229.5 1499.4,123.1 1499.9,123.1 1499.9,256.1 1530.5,256.1 1530.5,78 1483.3,78   "/>
		<path class="st0" d="M993.9,229.5h36.2l4.1,26.6h29.6L1031,78h-38l-32.8,178.1h29.6L993.9,229.5z M1011.8,125.8h0.5l13.8,77.1h-28    L1011.8,125.8z"/>
		<path class="st0" d="M1309.4,229.5h36.2l4.1,26.6h29.6L1346.5,78h-38l-32.8,178.1h29.6L1309.4,229.5z M1327.3,125.8h0.5l13.8,77.1    h-28L1327.3,125.8z"/>
		<path class="st0" d="M1847.7,229.5h36.2l4.1,26.6h29.6L1884.8,78h-38L1814,256.1h29.6L1847.7,229.5z M1865.5,125.8h0.5l13.8,77.1    h-28L1865.5,125.8z"/>
		<path class="st0" d="M1794.9,119.5c0-7.7-0.7-13.8-2.3-18.7c-4.7-16.2-17.4-22.7-46.2-22.7h-52.1v178.1h30.6v-90h23.3l13.4,90    h31.1l-14.7-97.8c2.7-1.3,5-2.8,7-4.7c7.1-6,9.9-14.8,9.9-30.2L1794.9,119.5L1794.9,119.5L1794.9,119.5z M1743.9,139.5h-19.1    v-34.8h19.1c16.9,0,22.8,5.1,22.8,17.4S1760.8,139.5,1743.9,139.5"/>
		<path class="st0" d="M1651,152.7l0.7-0.7c7.1-6,10-14.8,10-30.2v-4c0-11.7-2.2-19.4-5.8-25.3c-5.8-10-20.2-13.9-36.1-14.5h-58.7    v178.1h57.5c44.8,0,49.1-17.2,49.1-57.5C1667.7,179,1666.8,159.8,1651,152.7 M1591.6,104.7h20.2c17.7,0,21.4,3.8,21.8,16.6    c0,9.8-2.1,18.2-22,18.2h-20V104.7z M1637,210.7c0,6.1-1.7,12.7-7.8,15.8c-6.4,3.3-14.3,2.9-21.3,2.9h-16.1v-63.4h16.1    c7,0,14.9-0.4,21.3,2.9c6,3.1,7.8,9.7,7.8,15.8V210.7z"/>
	</g>
	<g>
		<path class="st0" d="M736.3,229.5h36.2l4.1,26.6h29.6L773.4,78h-38l-32.8,178.1h29.6L736.3,229.5z M754.1,125.8h0.5l13.8,77.1h-28    L754.1,125.8z"/>
		<polygon class="st0" points="241.8,229.5 190.5,229.5 190.5,166.1 230,166.1 230,139.5 190.5,139.5 190.5,104.7 241.8,104.7     241.8,78 159.9,78 159.9,256.1 241.8,256.1   "/>
		<polygon class="st0" points="588.9,229.5 534.2,229.5 534.2,166.1 573.6,166.1 573.6,139.5 534.2,139.5 534.2,104.7 585.5,104.7     585.5,78 503.6,78 503.6,256.1 588.9,256.1   "/>
		<path class="st0" d="M97.3,258.9c29.1,0,42.1-18.8,43.5-42.2h-30.6c-0.6,9.8-2.8,16.6-13,16.6c-12.3,0-16.2-7.5-16.2-20.8v-90.9    c0-13.3,4.1-20.6,16.4-20.6c6.7,0,11.9,6.9,12.7,16.3h30.7c-2.4-23.5-15.6-42-43.5-42c-32.1,0-46.9,20.5-46.9,45.6v92.3    C50.4,238.4,65.2,258.9,97.3,258.9"/>
		<polygon class="st0" points="696.1,78 604.5,78 604.5,104.7 654.5,104.7 598.2,256.1 689.8,256.1 689.8,229.5 640.1,229.5   "/>
		<polygon class="st0" points="432.4,208.4 432.9,208.4 454.8,78 484.4,78 451.6,256.1 413.7,256.1 380.9,78 410.4,78   "/>
		<path class="st0" d="M365.4,119.5c0-7.7-0.7-13.8-2.3-18.7C358.3,84.5,345.6,78,316.8,78h-52.1v178.1h30.6v-90h23.3l13.4,90h31.1    l-14.7-97.8c2.7-1.3,5-2.8,7-4.7c7.1-6,9.9-14.8,9.9-30.2V119.5L365.4,119.5z M314.4,139.5h-19.1v-34.8h19.1    c16.9,0,22.9,5.1,22.9,17.4C337.3,134.4,331.3,139.5,314.4,139.5"/>
		<path class="st0" d="M878,80.2c-19-8-40.7-7.5-54.2,10.3c-13.3,17.6-6.8,36.7-2.8,46.4c5.2,12.9,26.2,48.8,31.3,58.1    c5.4,9.9,11.6,26.8-2.3,34.2c-9.8,5.2-19.9,1.6-24.7-0.9l-9.7,27.1c19.7,6,40.6,4.2,54.8-7.8c11.5-9.8,17.3-22,15.8-40.3    c-0.7-7.7-4.6-19.1-7.2-24.8c-4.5-9.6-24.7-45.6-30.6-57.5c-5.3-10.6-3.1-16.2-0.1-19.4c3.6-3.8,11.8-3.5,19.7-1L878,80.2z"/>
	</g>
</g>
</svg>