<?xml version="1.0" encoding="utf-8"?>
<!-- Generator: Adobe Illustrator 26.4.1, SVG Export Plug-In . SVG Version: 6.00 Build 0)  -->
<svg version="1.0" id="katman_1" xmlns="http://www.w3.org/2000/svg" xmlns:xlink="http://www.w3.org/1999/xlink" x="0px" y="0px"
	 viewBox="0 0 841.9 595.3" style="enable-background:new 0 0 841.9 595.3;" xml:space="preserve">
<style type="text/css">
	.st0{fill:#961828;}
	.st1{fill-rule:evenodd;clip-rule:evenodd;fill:#F0E29D;}
	.st2{fill:#010203;}
	.st3{fill:#FFFFFF;}
	.st4{fill:#D5D9DC;}
	.st5{fill:#E11342;}
	.st6{fill-rule:evenodd;clip-rule:evenodd;fill:#E11342;}
</style>
<g id="Hex-Values">
	<g id="Sponsors-Copy" transform="translate(-991.000000, -941.000000)">
		<g id="Castle-Lager" transform="translate(990.000000, 941.000000)">
			<g id="Castle" transform="translate(0.775594, 0.429688)">
				<path id="Shape" class="st0" d="M775.9,459c-5.5,1.6-11.6,2.6-17.6,4c-20.5,4.8-44.2,9.1-70.4,13.1c-33.3,5-70.8,9.3-111.1,12.6
					c-44.9,3.6-94.2,6.4-147,7.9l-8.1,0.2h-2.4l-8.1-0.2c-52.6-1.6-102.2-4.1-147-7.9c-40.4-3.5-77.8-7.6-111.1-12.6
					c-26.2-4-49.9-8.5-70.4-13.1c-6-1.4-12.1-2.6-17.6-4l-7.6-2.1C85,380.9,98.9,343,98.9,343.1c0,0.1-13.9-37.6-41.7-112.9
					c4.1-1.7,21.4-5.2,36.2-9.3s35.6-9,63.5-13.6s63.2-9,106.7-12.3s95.6-5.4,157.2-5.4c34.5,0,66.1,0.7,94.7,1.9
					c28.6,1.2,54.7,2.9,77.8,5c23.3,2.1,44,4.5,62.3,7.1c18.3,2.6,34.3,5.4,48.2,8.1c6.9,1.4,13.3,2.8,19,4.1
					c5.9,1.4,11.2,2.8,16.1,4c4.8,1.2,9.1,2.6,13.1,3.6c3.8,1.2,7.2,2.2,10.4,3.3c1.6,0.5,2.9,1,4.1,1.4c1.4,0.5,2.4,0.9,3.6,1.4
					c1.2,0.3,2.2,0.9,3.3,1.2c1,0.3,11.6,5.4,11.6,7.2c0,0.8-47.7,109.6-47.7,109.6S753.2,384,785,457.1L775.9,459z"/>
				<path id="Shape_00000160877236870463945780000012415078001664582071_" class="st1" d="M105.7,247.6h631.5
					c0,0-127.5-16.7-315.7-16.7C233.3,230.8,105.7,247.6,105.7,247.6"/>
				<path id="Shape_00000167374392214937904900000013585589954352003223_" class="st2" d="M538.6,289.7h-96l-3.8,24.7
					c0,0,11.2-6.2,21.2-6.2h13.1L473,401h34c0,0-3.3-5.4-3.3-16.2c0-11,0.5-76.5,0.5-76.5s9.7,0,16.4,0c9,0,12.9,5.7,12.9,5.7
					L538.6,289.7z M587.9,289.7h-36.8c0,0,2.8,3.6,3.1,14.7c0.3,12.4,0.2,96.6,0.2,96.6h67.3l3.5-20.9c-3.6,2.4-15.7,3.5-26.4,3.5
					c-5.4,0-10.5-0.3-13.6-0.9V304C585.3,294.5,587.9,289.7,587.9,289.7z M707,289.7h-72.5c0,0,2.8,3.6,3.1,14.7
					c0.3,12.4,0.2,96.6,0.2,96.6h71.3l3.6-20.9c-3.6,2.4-16.6,3.5-28.3,3.5c-6,0-11.7-0.3-15.9-0.9v-7.6c0-7.1,0-17.1,0-23.8h29
					v-15.4h-29c0-6.6,0.2-20.2,0.2-29.9h24.9c9.5,0,13.5,4.8,13.5,5V289.7z M276.9,352.2c5.5-16.7,11.2-33.7,11.2-33.7l10,33.7
					H276.9z M277.6,289.2l-40.7,112h30.9c0,0-4.3-6.4-1-16.9c0.9-2.9,2.8-9.1,5.4-16.6H303l10,33.5h41.9c0,0-3.5-3.5-6.7-13.3
					c-4-11.4-32.3-98.7-32.3-98.7H277.6z M398.2,287.4c-11,0-22.4,2.1-31.6,8.1c-8.3,5.5-13.5,14.8-13.5,24.5
					c0,38,55.4,33.7,55.4,54.4c0,9.5-11,12.1-19.2,12.1c-12.1,0-26.6-6.4-34-11.4l4,25.5c10.7,3.6,21.9,4,33.1,4
					c12.9,0,24.5-2.4,35.2-9.7c9.7-6.6,14.5-16.4,14.5-27.4c0-10.9-4.7-18.5-13.5-25.5c-7.2-5.9-15.4-9.1-24.2-12.8
					c-6.7-2.8-17.3-5.9-17.3-14c0-7.9,8.6-10.9,15.9-10.9c9.1,0,17.9,3.3,25.5,7.9v-19.8C419.3,289.2,408.3,287.4,398.2,287.4z
					 M204.8,287.4c-17.6,0-36.6,4-50.2,15c-12.6,10.5-19.7,26.8-19.7,42.3c0,17.3,7.4,33.1,21.2,44c14.5,11.7,29.9,14.5,48.3,14.5
					c9,0,17.3-0.9,25.2-4c0,0,2.9-16.2,3.6-20.4c-6.6,4.3-14.2,6.7-23,6.7c-21.1,0-39-18.8-39-42.1c0-20.4,4.1-40.4,26.2-40.4
					c10.9,0,26.8,4.7,35.6,10.2l-1.2-23.6L204.8,287.4z"/>
				<path id="Shape_00000057137021721894538580000002780914081962507932_" class="st3" d="M433.5,358.4c0,11-4.8,20.9-14.5,27.4
					c-10.7,7.2-22.3,8.8-35.2,8.8c-11.2,0-22.4-1.9-33.1-5.4l-4-23.3c7.4,5,21.9,11.4,34,11.4c8.1,0,19.2-2.6,19.2-12.1
					c0-20.7-55.4-16.4-55.4-54.4c0-9.7,5.2-19,13.5-24.5c9.3-6,20.5-8.1,31.6-8.1c10.2,0,21.1,1.7,30.5,5.2v19.8
					c-7.6-4.7-16.6-7.9-25.5-7.9c-7.1,0-15.7,2.9-15.7,10.9c0,8.1,10.5,11.4,17.3,14c8.6,3.6,16.9,6.7,24.2,12.6
					C428.8,339.9,433.5,347.5,433.5,358.4z M529.9,280.5h-96l-3.8,24.7c0,0,11.2-6,21.2-6h13.1l-0.2,92.8h34c0,0-3.1-5.4-3.1-16.2
					c0-11,0.5-76.5,0.5-76.5s9.8,0,16.4,0c9,0,12.9,5.7,12.9,5.7L529.9,280.5z M616.7,371.1c-5.5,3.6-30.5,4.3-40,2.6V295
					c0-9.7,2.6-14.5,2.6-14.5h-36.6c0,0,2.8,3.6,3.1,14.7c0.3,12.4,0,96.6,0,96.6h67.3L616.7,371.1z M224.6,369.8
					c-6.6,4.3-14.2,6.7-23,6.7c-26.9,0-39-19-39-42.1c0-20.4,7.1-39,31.8-39c10.9,0,21.2,3.3,30,8.8l-1.2-23.6l-27.3-2.2
					c-17.6,0-36.6,4-50.2,15c-12.6,10.5-19.7,26.8-19.7,42.3c0,17.3,7.4,33,21.2,44c14.3,11.6,29.9,14.5,48.3,14.5
					c9,0,17.3-0.9,25.2-4C221,390.1,223.8,373.9,224.6,369.8z M659.9,373.7v-7.6c0-6.9,0-17.1,0-23.6h29V327h-29
					c0-6.6,0.2-20.2,0.2-29.9h24.9c9.5,0,13.5,4.8,13.5,5v-21.4h-72.5c0,0,2.8,3.6,3.1,14.7c0.3,12.4,0.2,96.6,0.2,96.6h71.3
					l3.6-20.9C698.7,374.8,672,375.5,659.9,373.7z M257.8,375.1c-3.1,10.5,1,16.9,1,16.9h-30.9l40.9-112h34.5
					c0,0,28.5,87.3,32.3,98.7c3.5,9.8,6.9,13.3,6.9,13.3H304l-9.8-33.5h-30.9C260.7,366,258.6,372.2,257.8,375.1z M268.3,343.2h21.2
					l-10-33.5C279.5,309.5,273.8,326.3,268.3,343.2z"/>
				<path id="Shape_00000033352545135432237980000002523123802846075284_" class="st4" d="M223.1,371.7c-0.5,3.3-2.9,16.6-3.1,17.6
					c-6.7,2.6-14.3,3.8-24.2,3.8c-14.5,0-23.1-0.5-36.4-6.6c-8.8-4.1-16.9-11.9-18.3-14.3c13.6,12.9,37.6,16.4,54.7,16.4
					c8.3,0,14.5-1,20.2-2.9c0.3-1.7,0.7-3.5,1.2-6.7L223.1,371.7z M161.6,334.4c0-26.2,11.4-40,32.8-40c10,0,20,2.8,28.8,7.9
					c-0.2-3.1-1-19-1-20.5h-0.5l-3.8,4.1c0.2,1.7,0.3,6.2,0.5,9c-7.6-3.3-15.7-5-23.8-5c-24.2,0-37.5,15.9-37.5,44.5
					c0,25,10.5,34.2,28,40.4l-0.2-0.2C170.3,368.6,161.6,354.2,161.6,334.4z M383.2,315.4c-4.3-3.1-5.9-6.7-5.9-9.3
					c0-8.3,8.5-11.9,16.9-11.9c7.8,0,16.2,2.6,24.5,7.2v-17.1l-4.8,3.5h0.2v6.4c-6.9-2.9-13.6-4.5-19.8-4.5
					c-12.6,0-21.4,4.8-21.4,14.5C372.9,309.5,378.7,313.8,383.2,315.4z M379.1,346.8c12.1,4.7,21.6,9.3,21.6,18.6c0,1-1,3.1,0.5,0.2
					c1-2.1,6.9-11.4-10.5-19.8c-17.4-8.5-37.8-9.7-44.2-25.2C349.8,329.4,356.5,338.2,379.1,346.8z M414,329.6
					c0,0,13.6,9.8,13.6,28.8c0,9.5-4.3,17.4-12.1,22.8c-10,6.9-21.2,7.8-31.9,7.8c-9.3,0-18.8-1.6-28-4.3l-4,3.6
					c10.5,3.5,21.2,5.2,32.1,5.2c11.4,0,23.5-1,34.5-8.6c9-6.2,14-15.5,14-26.6C432.2,345.8,422.8,334.7,414,329.6z M266.7,344.2
					l12.8-38.3v-14.3l-19,57L266.7,344.2z M298.3,352.9h-35h-4.1l-6.6,20.7c-0.9,3.1-1.4,6-1.4,9.1c0,1.4,0.2,2.6,0.3,3.8
					c-5,0-9.7,0-15.2,0l-5.9,4.5h26.9c-0.7-1.7-1.6-4.3-1.6-8.3c0-2.2,0.3-4.8,1.2-7.8l5.5-17.4h0.9l31.8,0.3L298.3,352.9z
					 M334.6,379.1c0,0-29.3-89.7-31.9-97.9l-3.3,4.5c1.6,4.8,6.9,20.9,6.9,20.9c22.3,67.8,24.2,73.7,24.3,74.4l-0.2-0.3
					c0.7,2.1,1.6,4,2.4,5.9h-24.3v-0.2l-3.3,4.7h35.2C338.9,388.9,336.6,385.3,334.6,379.1z M702.5,373.2
					c-0.5,3.5-2.8,16.2-3.1,17.8h-69.2l5.2-4.5h60.2c0.5-2.6,0.7-4.1,1.4-7.8l-0.7,0.2L702.5,373.2z M683.2,336.8h-29v29.3v11.7
					l4.5-3.1v-8.6v-24.9h29V328h-0.5l-4,4.7V336.8z M684.9,295.9c6,0,10,1.9,12.3,3.6c0-3.6,0-15.7,0-17.8l-4.5,4.5
					c0,2.2,0,3.3,0,6.2c-2.2-0.7-4.7-1-7.8-1h-30.5l-0.2,40.7l4.7-4.1l0.2-32.1H684.9z M575.5,374.6v-79.7c0-6.7,1.2-11,2.1-13.3
					l-6.4,4.3h0.5c-0.5,2.4-0.7,5.4-0.7,8.8V378l5.4-3.5H575.5z M608.8,378.9l0.9-0.2c-0.7,3.6-0.9,5.2-1.4,7.6H552l-4.7,4.5h64.9
					c0.2-1.6,2.4-14.3,2.9-17.8L608.8,378.9z M431.7,303.3c3.8-1.7,12.1-5.2,19.8-5.2h14.3v0.3l3.8-4.8h-18.1
					c-4.8,0-9.7,1.2-13.8,2.6L431.7,303.3z M523,286.2c-0.7,4-1.4,7.1-1.7,9.3c-2.8-1-5.7-1.7-9-1.7h-22.1l-0.5,82.1
					c0,4.3,0.3,7.8,1,10.5h-20.5V386l-3.8,4.8h30.2c-1-2.4-2.6-7.2-2.6-15l0.5-77.7h17.6c6.4,0,10.4,2.6,12.3,4.5
					c0.5-3.1,3.3-17.6,4-20.7L523,286.2z"/>
				<path id="Shape_00000052078970345151558070000013285348458705089202_" class="st1" d="M289.3,451.7v-12.6H108.8
					C108.8,439.1,178.9,448.3,289.3,451.7"/>
				<path id="Shape_00000183930188671999645000000014365331242218833846_" class="st1" d="M726.2,439.1H561.3v12.6
					C662.1,448.1,726.2,439.1,726.2,439.1"/>
				<path id="Shape_00000053545756827425493590000006203102148093545394_" class="st2" d="M350.6,469.3H322c0,0,0.2-34.3,0-39.3
					c-0.2-4.5-1.4-6-1.4-6h15.7c0,0-1.2,1.9-1.2,5.9v32.1c4,0.7,14.7,0.3,17.1-1L350.6,469.3z M468.3,461.9v-3.1c0-2.9,0-6.9,0-9.7
					h12.4v-6.2h-12.4c0-2.6,0-8.3,0-12.3h10.5c4,0,5.7,1.9,5.7,2.1V424h-30.9c0,0,1.2,1.6,1.4,6c0.2,5,0.2,39.3,0.2,39.3h30.4
					l1.6-8.5C484.9,462.3,473.5,462.6,468.3,461.9z M369.3,455.7h13.1l4.3,13.6h16.4c0,0-1.6-1.4-2.9-5.4c-1.7-4.7-13.6-40-13.6-40
					h-15c0,0-0.3,0.9-1.6,4.3c-1.2,3.5-12.4,32.8-13.5,35.6c-1.9,4.8-2.1,5.4-2.1,5.4h13.3c0,0-1.7-2.6-0.5-6.9
					C367.4,461.4,368.2,458.8,369.3,455.7z M376.3,435.9l4.3,13.6h-9C373.7,442.6,376.3,435.9,376.3,435.9z M445.7,446l-13.8,0.2
					c0.9,1.6,1.2,3.6,1.2,6.7v10.2c-1,0.2-2.1,0.2-2.9,0.2c-10.7,0-13.8-9.8-13.8-18.3c0-8.3,4.1-14.5,13.8-14.5
					c3.8,0,10.7,1.4,13.3,3.6h0.3v-9.5c-3.6-0.9-10-1.4-13.8-1.4c-15.4,0-27.4,9.1-27.4,23.8c0,15.4,12.4,23.5,27.8,23.5
					c5.4,0,10.7-0.9,15.7-2.1V446H445.7z M536.8,469.3h-10.2c-5,0.3-7.2-0.3-10-4.7l-8.3-14.7v13.5c0,4,1.2,5.9,1.2,5.9h-9h-6H494
					c0,0,1.2-1.6,1.4-6c0-2.1,0.2-9,0.2-16.6v-0.3c0-7.4,0-14.5-0.2-16.6c-0.2-4.5-1.4-6-1.4-6h0.7h19c3.6,0,6.6,0,9.8,1.6
					c4.3,2.2,6.6,5.9,6.6,10.5c0,5.2-4,9-8.8,10.9l8.8,13.8C532,463.8,533.9,466.9,536.8,469.3z M516.5,437.6c0-2.2-1-4.5-2.9-5.9
					c-1.2-0.9-2.8-1-4.3-1h-0.7v15.5C513,445.5,516.5,441.9,516.5,437.6z"/>
				<path id="Shape_00000034062143473453123360000005575475171667448961_" class="st3" d="M347.3,466.8h-28.6c0,0,0.2-34.3,0-39.3
					c-0.2-4.5-1.4-6-1.4-6H333c0,0-1.2,1.9-1.2,5.9c0,3.1,0,31.1,0,32.1c4.1,0.7,14.7,0.3,17.1-1L347.3,466.8z M465,459.3v-3.1
					c0-2.9,0-6.9,0-9.7h12.4v-6.2H465c0-2.6,0-8.3,0-12.3h10.5c4,0,5.7,1.9,5.7,2.1v-8.8h-30.9c0,0,1.2,1.6,1.4,6
					c0.2,5,0,39.3,0,39.3h30.4l1.6-8.5C481.6,459.7,470.2,460,465,459.3z M366,453.1h13.1l4.1,13.6h16.4c0,0-1.6-1.4-2.9-5.4
					c-1.7-4.7-13.6-40-13.6-40h-15c0,0-0.3,0.9-1.6,4.3c-1.2,3.5-12.4,32.6-13.5,35.6c-1.9,4.8-2.1,5.4-2.1,5.4h13.3
					c0,0-1.7-2.6-0.5-6.9C364.1,458.6,364.9,456.2,366,453.1z M373,433.1l4.3,13.6h-9C370.6,440,373,433.1,373,433.1z M442.4,443.5
					l-13.8,0.2c0.9,1.6,1.2,3.6,1.2,6.7v10.2c-1,0.2-2.1,0.2-2.9,0.2c-10.7,0-13.8-9.8-13.8-18.3c0-8.3,4.1-14.7,13.8-14.7
					c3.8,0,10.7,1.4,13.3,3.6h0.3v-9.5c-3.6-1-10-1.4-13.8-1.4c-15.4,0-27.4,9.1-27.4,23.8c0,15.4,12.4,23.5,27.8,23.5
					c5.4,0,10.7-0.9,15.7-2.1v-22.3H442.4z M533.7,466.6h-10.2c-5,0.3-7.2-0.3-9.8-4.7l-8.3-14.7v13.5c0,4,1.2,5.9,1.2,5.9h-9h-6
					h-0.7c0,0,1.2-1.6,1.4-6c0-2.1,0.2-9,0.2-16.6v-0.3c0-7.4,0-14.5-0.2-16.6c-0.2-4.5-1.4-6-1.4-6h0.7h19c3.6,0,6.6,0,9.8,1.6
					c4.3,2.2,6.6,5.9,6.6,10.5c0,5.2-4,9-8.8,10.9l8.8,13.8C528.7,461.2,530.6,464.3,533.7,466.6z M513.2,434.8c0-2.2-1-4.5-2.9-5.9
					c-1.2-0.9-2.8-1-4.3-1h-0.7v15.5C509.9,442.9,513.2,439.1,513.2,434.8z"/>
				<path id="Shape_00000147930691385903972960000000945665221798828711_" class="st1" d="M506.6,96.9H353.7l-4.1,71.4
					c-2.1,35,9.3,50.4,28.5,61.8l51.9,31.1l51.9-31.1c19.3-11.4,30.5-26.8,28.5-61.8L506.6,96.9z"/>
				<path id="Shape_00000009550878917438162390000004425988714743933116_" class="st5" d="M420.9,219.6c-0.9,0-1.4-0.3-1.9-0.7
					c-0.5-0.3-0.7-1.2-0.7-2.1c0-0.7,0.2-1.4,0.5-1.7c0.3-0.5,0.7-0.9,1-1l1.4,0.9c0.5,0.2,1,0.5,1.6,1c0.3,0.3,0.5,0.9,0.5,1.7
					s-0.3,1.4-0.7,1.7C421.9,219.4,421.4,219.6,420.9,219.6z M421.4,211c-0.3-0.2-0.7-0.3-1-0.5c-0.3-0.3-0.9-0.5-1-0.9
					c-0.3-0.3-0.3-0.7-0.5-1.2c0-0.7,0.2-1,0.5-1.2c0.3-0.3,0.9-0.5,1.4-0.5c0.7,0,1.2,0.3,1.6,0.7c0.3,0.5,0.5,0.9,0.5,1.4
					c-0.2,0.7-0.2,1-0.3,1.6C422.1,210.5,421.7,210.8,421.4,211z M421,204.8c-1.2,0-2.1,0.2-2.9,0.7c-0.7,0.3-1.4,0.9-1.7,1.6
					c-0.3,0.5-0.5,1.4-0.5,2.1c0,1,0.2,1.9,0.7,2.4c0.3,0.5,0.9,0.9,1.2,1.2c-0.5,0.3-1.2,0.9-1.7,1.4c-0.7,0.7-1,1.6-1,2.6
					c0,1.2,0.3,2.2,1.2,2.9c0.7,0.7,1.7,1.4,2.8,1.6c0.5,0.2,1,0.2,1.6,0.2c0.7,0,1.2,0,1.7-0.2c1.2-0.3,2.1-0.9,2.9-1.6
					c0.7-0.9,1-1.9,1.2-3.1c0-1.2-0.3-2.1-1-2.8c-0.5-0.7-1.4-1.2-2.1-1.6l0.7-0.5c0.5-0.3,0.9-0.7,1-1.2c0.3-0.3,0.5-1,0.5-1.6
					c0-0.9-0.3-1.6-0.7-2.1c-0.5-0.5-1-1-1.9-1.2C422.4,204.9,421.7,204.8,421,204.8z M435,213.9c-0.7,0-1-0.2-1.6-0.5
					c-0.5-0.5-0.7-1-0.9-1.6c-0.2-0.5-0.2-1-0.2-1.6c0-0.2,0-0.5,0.2-0.9c0-0.3,0.2-0.7,0.2-1.2c0.2-0.5,0.3-0.9,0.9-1
					c0.3-0.3,0.7-0.3,1.4-0.3h0.2c0.5,0,1.2,0.3,1.6,0.9c0.5,0.7,0.7,1.6,0.9,3.1c0,1-0.2,1.7-0.7,2.2
					C436.6,213.6,435.9,213.9,435,213.9z M435,204.8c-0.9,0-1.9,0.2-2.6,0.5c-0.9,0.3-1.7,1-2.2,1.9c-0.7,0.9-0.9,1.9-1,3.3
					c0,1,0.3,1.9,0.9,2.9c0.5,0.9,1.2,1.4,1.9,1.7c0.7,0.3,1.6,0.7,2.4,0.7h0.3c0.9,0,1.6,0,2.2-0.3c0.3-0.2,0.7-0.3,0.9-0.5
					c-0.2,0.7-0.3,1.6-0.7,2.1c-0.3,0.9-1,1.7-1.6,2.2c-0.7,0.5-1.4,0.9-2.4,0.9c-0.5,0-0.7,0-1-0.2l-0.9-0.3l-0.5-0.3l0.3,0.7
					c0.2,0.3,0.7,0.7,1.2,1c0.5,0.2,1.2,0.3,2.2,0.5c1.2,0,2.1-0.3,2.9-0.9c0.9-0.5,1.7-1.2,2.2-2.1c0.7-0.9,1.2-1.9,1.4-2.9
					c0.3-1,0.3-2.1,0.3-3.1c0-1.2-0.2-2.4-0.5-3.5c-0.5-1.2-1.2-2.1-2.1-2.9C437.6,205.3,436.6,204.9,435,204.8z M410.2,204.6
					l-4.7,2.6l0.2,0.5l0.9,0.2c0.2,0,0.3,0.3,0.3,0.9V220l-0.2,0.5l-0.3,0.3v0.5h4.3l0.2-0.5l-0.5-0.3V220v-15.4H410.2z
					 M453.1,204.3l-0.7,0.5l-0.3,0.2c0,0-0.3,0-0.9,0h-5.7l-1.4,8.3l0.5-0.3l0.7-0.3c0.2,0,0.3,0,0.5,0c0.2,0,0.3,0,0.5,0
					c1,0,1.9,0.3,2.6,1c0.5,0.7,1,1.4,1,2.4c0,0.7-0.2,1.2-0.5,1.7c-0.3,0.5-0.7,1-1.2,1.4c-0.5,0.3-1,0.5-1.9,0.5
					c-0.5,0-0.9,0-1.4-0.3c-0.3-0.2-0.9-0.5-1.2-0.7l-0.7-0.7l0.3,0.9c0.2,0.3,0.2,0.7,0.5,1c0.3,0.5,0.9,0.9,1.4,1.2
					c0.7,0.3,1.4,0.5,2.4,0.5c1.2,0,2.2-0.2,3.1-0.9c0.9-0.5,1.6-1,2.2-1.9c0.5-0.9,0.9-1.9,0.9-2.9c-0.2-1-0.5-2.1-1-2.9
					c-0.5-0.7-1.4-1.2-2.1-1.7c-0.7-0.3-1.6-0.5-2.4-0.5h-0.3c-0.3,0-0.5,0-0.9,0l-0.5,0.2l0.5-2.8h5.7L453.1,204.3z"/>
				<path id="Shape_00000070102521765715172320000018315921625242146210_" class="st5" d="M455.7,137.5h-7.2v7.2H441v-7.2h-7.2v7.2
					h-7.4v-7.2H419v7.2h-7.4v-7.2h-7.4l-2.6,60.2h18.6v-5.9c0-6,0.5-11.4,8.8-15.2l1-0.5l1,0.5c8.3,3.8,8.8,9.1,8.8,15.2v5.9h18.8
					L455.7,137.5z"/>
				<path id="Shape_00000128484588913296476460000006582008805695903152_" class="st6" d="M399.6,115.9v7.2h-7.4v-7.2H385v7.2h-7.4
					v-7.2h-7.4v14.3l7.4,7.2v60.2h22.1v-60.2l7.4-7.2v-14.3H399.6z M390.8,167.2h-4.1v-23.3h4.1V167.2z"/>
				<path id="Shape_00000134249216669892046370000005492566948791350195_" class="st6" d="M482.5,115.9v7.2H475v-7.2h-7.2v7.2h-7.4
					v-7.2H453v14.3l7.4,7.2v60.2h22.1v-60.2l7.4-7.2v-14.3H482.5z M473.7,167.2h-4.3v-23.3h4.3V167.2z"/>
				<polygon id="Shape_00000103945754879004776760000012473682339519277756_" class="st0" points="453.8,149.2 406.4,149.2 
					404.1,193.6 410.8,153.7 449.7,153.7 456.1,193.6 				"/>
				<path id="Shape_00000161634027367157830880000003174061941760999329_" class="st0" d="M407,130.2h-36.8l7.4,7.2v14.7
					c0-7.4,5-13.1,11-13.1c6,0,11,5.5,11,13.1v-14.7L407,130.2z"/>
				<path id="Shape_00000120523209106636041170000006070642314901698997_" class="st0" d="M489.9,130.2h-36.8l7.2,7.2v14.7
					c0-7.4,5-13.1,11-13.1c6,0,11,5.5,11,13.1v-14.7L489.9,130.2z"/>
				<path id="Shape_00000079443754491399300600000005787275409251896235_" class="st0" d="M429.8,241.7L387,217.2
					c-15.5-9.5-28.1-17.6-26.2-48.8l3.3-67h-4l-3.6,66.8c-1.9,32.6,8.3,45.4,25.4,55.6l48.2,29v-11H429.8z"/>
				<path id="Shape_00000115510775388172911130000005154287846723773576_" class="st5" d="M430,241.7l43-24.5
					c15.5-9.5,28.1-17.6,26.2-48.8l-3.3-67h4.1l3.6,66.8c1.9,32.6-8.3,45.4-25.2,55.6l-48.3,29v-11H430z"/>
			</g>
		</g>
	</g>
</g>
</svg>
