<?xml version="1.0" encoding="UTF-8" standalone="no"?> <!DOCTYPE svg PUBLIC "-//W3C//DTD SVG 1.1//EN" "http://www.w3.org/Graphics/SVG/1.1/DTD/svg11.dtd"> <svg width="100%" height="100%" viewBox="0 0 377 556" version="1.1" xmlns="http://www.w3.org/2000/svg" xmlns:xlink="http://www.w3.org/1999/xlink" xml:space="preserve" xmlns:serif="http://www.serif.com/" style="fill-rule:evenodd;clip-rule:evenodd;stroke-linejoin:round;stroke-miterlimit:2;">     <path d="M6.48,307.962C44.76,307.962 83.04,308.183 121.31,308.003C121.75,310.983 118.93,311.593 117.05,312.853C97.98,350.203 77.47,386.663 58.13,423.803C63.26,424.053 68.28,422.823 73.2,421.553C170.83,422.683 268.52,421.583 366.17,421.962C365.88,422.453 365.3,423.423 365.02,423.913C361.12,426.783 360.62,433.573 363.91,436.993C368.06,440.643 375.46,439.683 372.78,447.603C366.37,447.733 360.36,452.772 361.69,459.652C361.33,467.823 375.49,464.383 372.54,472.923C370.6,476.113 363.75,475.212 362.27,479.873C358.28,486.513 365.42,494.383 372.46,493.933C372.45,496.753 373.93,502.513 369.27,501.673C359.37,502.163 359.12,519.272 369,520.302C373.8,519.922 374.25,529.323 369.12,527.922C359.34,529.642 359.26,545.752 369.2,547.353C373.55,546.532 372.52,551.103 372.23,553.953C364.9,554.402 357.41,554.652 350.08,554.113C348.51,543.782 331.14,541.402 327.71,551.563C326.97,555.902 321.21,554.672 318.17,553.943C316.96,541.882 296.05,542.193 295.45,554.333C292.6,554.573 289.73,554.583 286.89,554.333C285.81,543.512 268.51,541.422 264.67,551.453C264.59,556.002 258.04,554.922 255.64,553.593C253.06,542.252 234.13,542.443 231.99,553.872C229.47,554.742 223.74,555.792 222.96,552.042C220.27,542.703 205.14,542.782 201.63,551.432C201,555.782 195.19,554.843 192.27,553.882C190.84,541.932 170,542.103 169.56,554.382C166.63,554.563 163.69,554.563 160.76,554.382C160.48,543.113 141.95,541.943 138.48,551.782C138.3,556.233 132.94,554.203 130,554.193C127.82,542.772 108.88,541.642 106.62,553.532C104.27,555.012 98.07,555.813 97.13,551.853C94.5,542.502 78.94,542.863 75.7,551.573C74.94,555.802 69.26,554.733 66.33,553.953C65.2,541.973 44.26,542.142 43.58,554.392C40.71,554.492 37.78,554.742 34.96,554.122C33.73,541.882 12.92,542.132 12.05,554.573C3.03,557.552 6.73,546.652 6.48,541.343C10.41,540.323 14.39,538.882 17.23,535.853C20.75,530.002 16,521.382 9.04,521.592C5.09,521.802 4.95,513.833 9.13,514.292C19.86,514.022 19.98,495.793 9.14,495.723C4.46,496.853 6.84,490.843 6.46,488.163C12.29,489.152 19.15,485.323 19.06,478.873C19.07,472.413 12.28,468.373 6.34,469.693C6.95,466.943 4.35,460.593 9.2,462.212C16.77,463.833 22.7,453.873 18.37,447.783C15.74,440.643 2.7,446.022 6.42,436.152C13.68,438.143 22.94,430.053 18.5,422.883C16.08,415.633 2.88,420.022 6.34,410.033C14.67,412.873 23.77,404.443 18.99,396.203C16.48,388.163 2.49,394.533 6.58,384.323C14.14,385.883 22.22,378.483 19.17,370.863C16.45,363.583 3.15,367.803 6.32,358.083C13.02,359.323 21.64,353.523 18.89,346.123C17.32,340.573 11.3,339.413 6.44,338.423C3.22,330.203 14.28,332.113 16.24,325.843C18.74,320.233 14.07,313.753 8.13,313.533C5.26,313.712 6.76,309.773 6.48,307.962Z" style="fill:rgb(209,17,28);fill-rule:nonzero;"/>     <path d="M372.653,238.786C372.647,239.751 51.86,241.203 5.07,238.193C2.44,229.993 12.93,233.083 15.82,227.573C19.07,222.003 14.52,215.223 8.44,214.573C4.01,214.953 4.67,209.353 5.99,206.683C11.5,206.613 18.13,202.153 16.61,195.873C15.63,187.773 1.26,191.363 5.18,181.813C10.31,180.253 18.29,177.283 16.73,170.223C15.94,161.663 1.02,165.933 5.16,155.803C10.35,154.353 18.33,151.543 16.73,144.473C16.12,135.923 1.06,139.523 5.21,129.813C9.89,128.403 17.49,126.473 16.76,119.852C17.31,113.443 9.69,111.673 5.4,110.853C0.25,100.703 16.37,104.403 16.79,95.623C18,89.213 11.13,85.023 5.47,85.403C2.08,79.643 7.73,75.913 12.91,75.533C19.58,71.613 16.74,60.683 9.14,59.933C3.37,61.503 2.9,50.843 8.47,51.323C13.83,50.683 18.47,45.283 16.44,39.843C14.51,32.603 1.12,36.143 5.19,26.813C9.42,24.833 17.93,23.313 16.73,16.173C17.45,7.092 0.39,10.112 5.37,0.152C12.9,0.053 20.43,0.553 27.96,0.143C28.87,12.893 50.36,12.553 51.63,0.173C54.26,0.143 56.94,-0.107 59.53,0.402C60.29,12.663 82.36,12.713 82.58,0.183C85.39,0.473 89.2,-0.697 91.4,0.793C92.41,12.003 110.41,12.522 113.91,2.693C114.49,-1.447 119.59,0.503 122.48,0.453C123.74,12.543 144.69,12.673 145.82,0.443C148.44,-0.188 151.25,0.193 153.94,0.183C155.01,12.702 176.51,12.723 177.61,0.162C180.31,0.083 183.01,0.093 185.71,0.183C186.13,12.573 208.12,12.793 208.8,0.433C211.34,-0.178 214.06,0.173 216.66,0.173C218.13,12.033 238.57,13.013 240.27,0.813C242.3,-0.577 245.83,0.383 248.42,0.433C249.75,12.563 271.22,12.702 271.58,0.183C274.54,0.213 277.61,-0.197 280.51,0.433C281.4,12.713 302.34,11.923 303.62,0.093C306.34,-0.037 309.07,-0.018 311.8,0.072C312.75,12.133 333.36,12.543 335.02,0.793C337.43,-0.137 342.63,-0.917 343.46,2.572C347.23,12.702 365.23,11.932 367.23,0.863C369.499,-0.095 372.59,1.004 372.59,1.004C372.59,1.004 372.084,7.678 372.17,11.23C372.369,11.447 372.486,11.742 372.511,12.127C359.761,12.863 360.101,30.243 372.481,31.27C372.511,33.397 372.761,35.565 372.251,37.659C359.991,38.274 359.941,56.123 372.471,56.301C372.181,58.574 373.351,61.655 371.861,63.434C360.651,64.251 359.798,79.975 371.795,81.639C372.435,84.608 372.151,86.233 372.201,88.57C360.111,89.589 360.315,106.866 372.545,107.779C373.175,109.898 372.461,111.838 372.471,114.013C359.951,114.879 359.931,132.267 372.491,133.156C372.571,135.34 372.585,140.176 373.07,140.443C371.621,140.366 370.009,140.396 368.393,140.586C359.694,143.934 361.906,159.424 372.221,158.381C372.831,160.435 372.481,162.635 372.481,164.738C360.621,165.927 359.641,182.457 371.841,183.832C373.231,185.474 372.271,188.329 372.221,190.423C370.858,190.544 369.646,190.871 368.587,191.356C368.704,191.382 368.822,191.411 368.94,191.443C368.786,191.43 368.633,191.419 368.478,191.407C360.23,195.307 361.408,208.897 372.471,209.154C372.441,211.548 372.851,214.031 372.221,216.376C362.512,216.945 360.973,227.652 366.603,232.621C367.619,233.238 368.819,233.659 370.2,233.813C371.488,233.748 372.148,234.274 372.479,235.059C372.507,235.061 372.534,235.064 372.561,235.066C372.567,235.153 372.571,235.24 372.576,235.326C372.896,236.347 372.776,237.699 372.76,238.783L372.653,238.786Z" style="fill:rgb(39,49,136);fill-rule:nonzero;"/>     <path d="M263.86,118.503C286.3,108.723 308.59,98.563 331.49,89.893C328.37,96.603 323.88,102.573 320.6,109.193C337.37,110.703 374.16,109.543 374.16,109.543L374.16,114.593C374.16,114.593 332.85,113.493 317.28,114.983C313.38,121.262 308.79,127.463 306.28,134.523C327.24,134.493 374.16,133.473 374.16,133.473L374.16,140.443C374.16,140.443 320.27,140.993 303.49,139.173C297.9,144.853 294.82,152.723 291.08,159.713C316.16,159.603 374.16,159.173 374.16,159.173L374.16,164.983C374.16,164.983 314.13,168.053 289.09,164.543C283.35,169.813 279.97,177.833 276.3,184.803C307.82,184.963 374.16,184.643 374.16,184.643L374.16,191.243C374.16,191.243 304.79,191.053 272.73,190.543C268.42,196.993 264.11,203.613 260.99,210.743C293.28,210.833 374.16,209.653 374.16,209.653L374.16,216.203C374.16,216.203 284.67,215.563 257.48,216.113C254.61,220.443 252.03,224.963 249.52,229.512C257.66,232.373 263.89,240.063 273.09,239.753C306.31,239.553 376.33,239.132 376.33,239.132L376.32,308.022C376.32,308.022 264.33,307.683 210.44,308.043C205.82,316.983 200.74,325.683 196.21,334.673C250.87,334.443 374.16,333.652 374.16,333.652L374.16,340.983C374.16,340.983 251.47,340.533 192.12,341.033C186.4,347.493 180.91,354.673 176.09,361.683C241.76,361.533 374.16,361.603 374.16,361.603L374.16,368.133C374.16,368.133 236.94,368.253 169.4,368.073C162.91,375.413 154.34,380.683 148,388.073C217.04,388.553 373.26,387.583 373.26,387.583L373.26,394.973C373.26,394.973 192.14,393.413 142.14,394.753C138.66,393.753 135.37,395.183 132.62,397.283C122.32,404.633 110.24,408.873 99.09,414.533C107.73,415.563 116.46,415.803 125.16,415.843C207.58,415.772 374.16,415.793 374.16,415.793L374.16,421.973C374.16,421.973 170.83,422.683 73.2,421.553C68.28,422.823 63.26,424.053 58.13,423.803C77.47,386.663 97.98,350.203 117.05,312.853C118.93,311.593 121.75,310.983 121.31,308.003C83.04,308.183 0.01,308.402 0.01,308.402L0,238.512C0,238.512 98.92,238.792 145.82,239.292C146.48,234.042 145.42,227.433 140.78,224.163C131.59,214.483 117.72,211.113 105,209.463C99.98,215.903 98.43,224.433 92.88,230.533C88.58,235.473 80.54,236.503 75.11,232.913C67.3,229.973 60.41,225.163 52.44,222.533C49.24,219.953 45.57,215.853 47.62,211.463C57.13,197.113 63.81,181.193 73.03,166.853C74.98,161.193 78.22,155.073 84.18,152.913C93.11,151.043 99.95,158.473 107.8,161.262C114.17,164.103 124.07,167.143 123.02,175.923C118.83,185.973 111.69,194.623 107.89,204.913C118.6,202.853 129.1,199.133 138.17,192.973C151.97,185.063 169.84,189.153 179.95,201.083C184.84,208.042 194.54,205.903 199.43,200.143C213.93,188.043 219.76,169.663 229.41,154.093C238.06,140.003 248.97,126.382 263.86,118.503" style="fill:white;fill-rule:nonzero;"/>     <g>         <path d="M210.44,308.043C264.33,307.683 318.26,307.913 372.16,307.962C373.12,310.183 373.83,314.603 370.25,314.573C362.08,315.083 359.24,326.523 365.15,331.513C373.1,333.773 363.99,334.643 360.17,334.553C305.53,335.643 250.87,334.443 196.21,334.673C200.74,325.683 205.82,316.983 210.44,308.043Z" style="fill:rgb(209,17,28);fill-rule:nonzero;"/>         <path d="M176.09,361.683C180.91,354.673 186.4,347.493 192.12,341.033C251.47,340.533 310.9,340.663 370.27,340.983C374.51,341.283 369.01,341.663 368.11,343.343C359.14,343.923 360.66,358.133 368.51,359.363C370.31,359.793 373.91,358.543 373.14,361.603C307.47,362.263 241.76,361.533 176.09,361.683Z" style="fill:rgb(209,17,28);fill-rule:nonzero;"/>         <path d="M169.4,368.073C236.94,368.253 304.56,368.743 372.13,368.133C370.33,369.393 367.3,367.763 366.1,370.113C357.38,375.033 368.5,386.373 372.3,387.583C366.6,388.053 360.88,388.233 355.16,388.293C286.11,388.123 217.04,388.553 148,388.073C154.34,380.683 162.91,375.413 169.4,368.073Z" style="fill:rgb(209,17,28);fill-rule:nonzero;"/>         <path d="M132.62,397.283C135.37,395.183 138.66,393.753 142.14,394.753C192.14,393.413 242.21,393.883 292.23,394.212C317.89,394.573 343.61,393.513 369.25,394.973C368.33,395.523 367.41,396.103 366.52,396.693C359.43,399.652 360.77,411.983 368.75,412.783C370.26,413.543 373.13,413.333 372.44,415.793C290.01,415.933 207.58,415.772 125.16,415.843C116.46,415.803 107.73,415.563 99.09,414.533C110.24,408.873 122.32,404.633 132.62,397.283Z" style="fill:rgb(209,17,28);fill-rule:nonzero;"/>     </g>     <path d="M146.53,197.353C151.09,194.262 155.4,200.943 151.49,204.193C147.26,208.183 141.73,200.173 146.53,197.353Z" style="fill:rgb(42,43,125);fill-rule:nonzero;"/>     <g>         <path d="M144.46,249.293C152.94,248.142 162.33,252.223 165.59,260.493C171.14,275.533 162.34,295.373 146.11,298.973C137.09,301.383 125.71,298.253 121.81,289.103C115.25,273.013 125.82,250.152 144.46,249.293M142.4,258.262C133.95,261.483 129.81,271.283 129.93,279.823C129.71,286.223 135.74,292.013 142.14,290.973C152.92,289.063 158.18,276.423 156.7,266.513C155.84,259.923 148.47,256.152 142.4,258.262Z" style="fill:rgb(209,17,28);fill-rule:nonzero;"/>         <path d="M191.46,249.313C200.87,247.633 212.91,253.173 212.53,263.993C209.49,263.673 205.05,265.603 202.74,263.553C202.1,255.283 185.36,254.762 186.81,263.783C192.19,270.953 204.49,270.043 208.45,278.902C212.14,287.253 205.73,297.033 197.19,298.763C186.31,302.363 168.95,296.893 171.09,282.933C174.13,283.123 180.62,280.143 180.92,284.843C181.48,294.233 202.34,292.863 198.5,282.713C192.37,276.753 180.82,276.902 177.46,267.943C173.96,258.863 182.01,248.933 191.46,249.313Z" style="fill:rgb(209,17,28);fill-rule:nonzero;"/>         <path d="M13.51,250.173C16.82,250.313 20.53,249.483 23.59,250.603C20.16,266.443 17.08,282.363 13.54,298.183C10.75,299.703 6.71,298.763 3.49,298.473C6.48,282.303 9.98,266.223 13.51,250.173Z" style="fill:rgb(209,17,28);fill-rule:nonzero;"/>         <path d="M33.24,250.163C36.35,250.142 39.56,249.772 42.61,250.363C47.05,260.293 50.38,271.233 55.39,280.603C58.29,271.453 59.55,260.043 62.33,250.133C65.4,250.262 68.75,249.573 71.66,250.522C68.26,266.453 64.98,282.402 61.65,298.343C58.83,299.593 55.25,298.943 52.17,298.753C47.36,288.863 44.19,277.173 39.11,268.073C36.19,277.533 34.91,288.773 32.16,298.793C29.33,298.823 24.68,299.883 22.95,297.913C26.42,282.043 29.15,265.743 33.24,250.163Z" style="fill:rgb(209,17,28);fill-rule:nonzero;"/>         <path d="M82.22,250.183C91.79,250.853 102.09,248.233 111.16,251.892C120.69,258.163 116.59,274.523 106.76,278.413C100.1,281.093 92.7,279.943 85.7,280.363C84.01,286.333 83.11,292.503 81.74,298.553C78.37,299.313 74.84,299.063 71.43,298.713C75.13,282.683 77.5,265.323 82.22,250.183M90.34,258.133C89.06,262.573 88.22,267.143 87.36,271.693C93.9,272.152 103.81,273.023 106.05,264.973C107.59,256.003 95.8,258.343 90.34,258.133Z" style="fill:rgb(209,17,28);fill-rule:nonzero;"/>         <path d="M290.47,249.332C299.65,247.753 310.08,252.563 312.96,261.823C316.82,274.953 310.74,291.083 298.16,297.152C288.47,301.833 274.16,300.343 268.99,289.803C261.81,273.923 272.06,250.933 290.47,249.332M289.4,258.262C277.52,262.353 270.78,283.943 283.8,290.383C296.63,294.043 305.18,278.443 303.73,267.463C303.37,260.543 295.79,256.063 289.4,258.262Z" style="fill:rgb(42,43,125);fill-rule:nonzero;"/>         <path d="M225.3,250.193C235.76,251.082 249.16,246.743 256.91,256.082C266.89,270.353 258.96,294.843 241.09,298.133C232.4,299.393 223.57,298.743 214.82,298.853C218.14,282.663 221.06,265.883 225.3,250.193M233.34,258.623C231.17,269.143 228.92,279.652 226.77,290.183C232.84,291.163 241.03,291.543 245.35,285.983C250.45,279.823 252.41,270.833 249.73,263.233C246.92,256.883 238.92,258.303 233.34,258.623Z" style="fill:rgb(42,43,125);fill-rule:nonzero;"/>         <path d="M326.37,250.133C331.19,250.113 336.02,250.073 340.84,250.173C341.33,261.063 341.58,271.983 342.36,282.853C348.1,272.243 352.95,260.993 358.53,250.233C363.38,249.973 368.24,250.202 373.09,250.113C370,266.393 366.38,282.593 363.02,298.823C359.94,298.963 356.85,298.913 353.77,298.853C356.12,287.173 359.35,275.673 361.79,264.013C354.68,274.463 350.47,287.513 344.2,298.813C341.02,298.853 337.74,299.203 334.61,298.573C334.15,286.233 333.49,273.913 333.05,261.582C329.55,272.813 328.3,286.673 325.28,298.833C322.23,298.953 319.18,298.923 316.14,298.843C319.52,282.603 322.78,266.333 326.37,250.133Z" style="fill:rgb(42,43,125);fill-rule:nonzero;"/>     </g> </svg> 