<?xml version="1.0" encoding="UTF-8"?> <!-- Generator: Adobe Illustrator 16.0.0, SVG Export Plug-In . SVG Version: 6.00 Build 0)  --> <!DOCTYPE svg PUBLIC "-//W3C//DTD SVG 1.1//EN" "http://www.w3.org/Graphics/SVG/1.1/DTD/svg11.dtd"> <svg version="1.1" id="Layer_1" xmlns="http://www.w3.org/2000/svg" xmlns:xlink="http://www.w3.org/1999/xlink" x="0px" y="0px" width="473.870586314" height="211.028080004" viewBox="0 0 512.031 228.022" enable-background="new 0 0 512.031 228.022" xml:space="preserve">  <path fill="#282F75" d="M65.763,64.816c47.001-82.738-41.851-37.99-64.712-21.892c-1.928,0.963-0.964,1.928,0.969,0   c74.364-39.922,71.467-6.765,63.743,20.921C64.799,64.816,65.763,64.816,65.763,64.816"/>  <path fill="#282F75" d="M118.239,165.902c1.929,3.543,4.826,11.266,4.826,13.195h0.97c0-0.965-0.97-9.652-1.934-13.195   c-5.795-27.687-21.892-41.21-48.615-59.236C46.769,86.708,40.973,53.545,40.008,46.785h-0.969   c-0.964,7.405-9.332,46.683,18.35,65.676C84.112,131.456,107.938,142.078,118.239,165.902"/>  <path fill="#00946F" d="M94.414,99.902c-0.964,0-0.964,0.969,0,0.969c9.657,0.964,43.139-1.608,62.134-18.029   c19.959-16.098,38.309-28.652,58.272-30.262c0.964,0,1.928-0.968,0-0.968c-2.897,0,0-0.965-4.831,0   c-18.994,0.968-39.278,8.373-56.339,24.789C135.62,92.498,101.173,99.263,94.414,99.902"/>  <path fill="#00946F" d="M83.148,86.708c-0.969,0-1.934,0.964,0,0.964c9.332,0.963,42.815-0.964,61.809-17.061   c19.319-17.066,38.309-29.622,58.273-31.555c0.964,0,1.928-0.965,0-0.965c-2.898,0-0.969,0-4.832,0   c-19.958,1.935-38.953,8.693-57.303,24.791C124.035,79.944,89.583,85.739,83.148,86.708"/>  <path fill="#00946F" d="M70.589,74.472c-0.965,0-0.965,0.965,0,0.965c9.662,0.965,43.784-1.933,62.134-18.349   c19.964-16.099,38.958-28.332,59.236-30.262c0-0.968,1.934-0.968-0.964-0.968c-1.934,0,0-0.964-4.832,0   c-18.994,0.968-38.309,8.374-56.338,24.79C111.8,66.744,77.353,73.504,70.589,74.472"/>  <path fill="#282F75" d="M236.712,139.18c-0.969-0.964-0.969-0.964-0.969-0.964c-0.964,1.927-3.861,3.862-4.826,3.862   c-0.969,0-1.933,0-1.933-0.965c0-0.97,0.964-1.933,0.964-2.897c4.832-13.524,4.832-13.524,4.832-13.524   c0.964,0,0.964-1.61,0.964-2.573c0-0.965-0.964-1.935-2.897-1.935c-4.826,0-12.229,6.44-15.127,11.271   c3.862-11.271,3.862-11.271,3.862-11.271c-8.693,0-8.693,0-8.693,0c0,0.97,0,0.97,0,0.97c0.965,0,0.965,0,0.965,0   c1.933,0,2.896,0,1.933,2.573c-6.759,22.862-6.759,22.862-6.759,22.862c3.861,0,3.861,0,3.861,0   c1.934-4.511,1.934-4.511,1.934-4.511c1.928-6.76,2.898-8.693,5.796-11.591c1.928-1.93,4.505-5.795,8.368-5.795   c0.964,0,0.964,0,0.964,0.968c0,0.965,0,2.897-0.964,2.897c-3.862,12.556-3.862,12.556-3.862,12.556   c-0.969,1.933-0.969,2.897-0.969,3.862c0,0.963,0.969,1.613,1.934,1.613c3.862,0,6.76-2.578,8.693-4.511"/>  <path fill="#282F75" d="M173.609,142.078c9.656-31.55,9.656-31.55,9.656-31.55c0.97-3.862,1.934-3.862,3.867-3.862   c0.965,0,0.965,0,0.965,0c0.964-0.97,0.964-0.97,0.964-0.97c-14.483,0-14.483,0-14.483,0c0,0.97,0,0.97,0,0.97   c0.965,0,0.965,0,0.965,0c1.933,0,2.897,0,1.933,3.862c-3.866,14.164-3.866,14.164-3.866,14.164c-19.959,0-19.959,0-19.959,0   c4.832-14.164,4.832-14.164,4.832-14.164c0.964-3.862,1.928-3.862,3.862-3.862c0.963,0,0.963,0,0.963,0   c0.969-0.97,0.969-0.97,0.969-0.97c-14.487,0-14.487,0-14.487,0c0,0.97,0,0.97,0,0.97c0.964,0,0.964,0,0.964,0   c1.934,0,2.897,0,1.934,3.862c-9.662,31.55-9.662,31.55-9.662,31.55c-0.965,3.86-1.929,3.86-3.537,3.86c-0.969,0-0.969,0-0.969,0   c0,0.65,0,0.65,0,0.65c13.199,0,13.199,0,13.199,0c0-0.65,0-0.65,0-0.65c-0.964,0-0.964,0-0.964,0c-1.933,0-2.898,0-1.933-3.86   c4.831-15.453,4.831-15.453,4.831-15.453c18.995,0,18.995,0,18.995,0c-4.832,15.453-4.832,15.453-4.832,15.453   c-0.644,3.86-1.608,3.86-3.537,3.86c-0.969,0-0.969,0-0.969,0c-0.963,0.65-0.963,0.65-0.963,0.65c14.163,0,14.163,0,14.163,0   c0-0.65,0-0.65,0-0.65c-0.964,0-0.964,0-0.964,0C173.609,145.938,172.646,145.938,173.609,142.078"/>  <path fill="#282F75" d="M204.194,129.522c-0.964,5.795-4.826,16.416-12.229,16.416c-5.801,0-6.765-3.86-6.765-8.688   c0.964-6.764,4.831-16.097,12.235-16.097C203.23,121.154,204.194,124.697,204.194,129.522 M197.435,119.222   c-8.373,0-16.097,7.403-17.061,16.096c0,7.728,3.862,12.236,11.591,12.236c8.368,0,16.096-7.405,16.096-16.098   C209.025,124.697,205.158,119.222,197.435,119.222z"/>  <path fill="#282F75" d="M275.021,129.522c0,0,8.368-5.795,9.339-6.44c1.927-0.963,1.927-1.928,4.824-1.928c0-0.97,0-0.97,0-0.97   c-10.62,0-10.62,0-10.62,0c0,0.97,0,0.97,0,0.97c0.964,0,1.928,0,1.928,0s1.934,0,0.97,1.928c-0.97,0.645-7.404,5.476-12.235,9.338   c7.729-26.724,7.729-26.724,7.729-26.724c-7.729,0-7.729,0-7.729,0c-0.964,0.97-0.964,0.97-0.964,0.97c1.929,0,1.929,0,1.929,0   c0.969,0,2.897,0,1.933,3.862c-11.591,36.061-11.591,36.061-11.591,36.061c4.832,0,4.832,0,4.832,0   c2.897-11.271,2.897-11.271,2.897-11.271c2.897-1.933,2.897-1.933,2.897-1.933s1.929,4.831,3.861,7.729   c2.573,5.476,8.368,5.476,9.339,5.476c1.927,0,1.927,0,1.927,0c0-0.65,0-0.65,0-0.65   C280.491,144.976,280.491,143.046,275.021,129.522"/>  <path fill="#282F75" d="M248.303,136.288c-3.867,0-4.83-1.935-4.83-4.833c0-3.866,2.896-10.301,7.403-10.301   c2.898,0,3.863,2.573,3.863,5.471C254.738,130.487,251.84,136.288,248.303,136.288 M244.436,145.938   c8.374,3.543,8.374,3.543,8.374,3.543c1.929,0.965,2.897,1.928,2.897,2.902c0,3.866-6.44,5.796-9.338,5.796   c-6.759,0-9.657-1.93-9.657-5.796C236.712,148.517,243.473,146.589,244.436,145.938z M264.4,122.119c-6.765,0-6.765,0-6.765,0   c-0.965,0-0.965,0-0.965,0c-2.897-1.929-2.897-1.929-6.759-1.929c-5.476,0-11.271,3.537-11.271,9.333   c0,3.862,1.934,5.795,4.832,7.729c-0.971,0.965-4.832,2.897-4.832,4.827c0,1.933,2.898,2.897,3.861,2.897   c-3.861,1.613-7.723,3.541-7.723,8.373c0,5.796,6.759,5.796,10.621,6.759c5.476,0,14.168-2.893,14.168-8.698   c0.964-4.82-2.897-6.434-6.759-7.398c-3.543-0.965-8.374-2.897-8.374-2.897l-0.963-0.965c0-0.968,0.963-1.933,1.927-2.897   c0.969,0.965,1.934,0.965,2.903,0.965c5.471,0,11.266-3.863,11.266-10.626c0-0.965,0-2.893-0.969-3.863c4.831,0,4.831,0,4.831,0   L264.4,122.119z"/>  <path fill="#282F75" d="M353.258,136.288c-2.903,0-3.867-1.935-3.867-4.833c0-3.866,2.902-10.301,7.723-10.301   c2.578,0,3.543,2.573,3.543,5.471C360.656,130.487,358.078,136.288,353.258,136.288 M350.354,145.938   c8.688,3.543,8.688,3.543,8.688,3.543c1.614,0.965,2.578,1.928,2.578,2.902c0,3.866-7.399,5.796-10.302,5.796   c-5.796,0-8.688-1.93-8.688-5.796C342.631,149.481,348.415,146.589,350.354,145.938z M369.354,122.119c-5.805,0-5.805,0-5.805,0   c-0.965,0-0.965,0-0.965,0c-2.893-0.965-3.542-1.929-6.435-1.929c-5.795,0-11.591,3.537-11.591,9.333   c0,3.862,1.929,5.795,4.832,7.729c-0.976,0.965-4.832,2.897-4.832,4.827c0,1.933,2.893,2.897,3.856,2.897   c-3.856,1.613-8.687,3.541-8.687,8.373c0,5.796,6.759,6.759,11.59,6.759c5.795,0,14.168-1.928,14.168-8.698   c0.965-4.82-3.866-6.434-6.444-7.398c-3.857-0.965-8.688-2.897-8.688-2.897c-0.964,0-0.964-0.965-0.964-0.965   c0-0.968,0.964-1.933,1.928-1.933c0.975,0,1.939,0,1.939,0c5.784,0,12.229-3.863,12.229-10.626c0-0.965-0.975-2.893-1.938-3.863   c5.805,0,5.805,0,5.805,0V122.119z"/>  <path fill="#282F75" d="M342.631,139.18c-0.965-0.964-0.965-0.964-0.965-0.964c-0.963,1.927-3.866,3.862-5.806,3.862   c0,0-0.964,0-0.964-0.965c0-0.97,0.964-1.933,0.964-2.897c4.843-12.556,4.843-12.556,4.843-12.556c0-0.968,0.963-1.933,0.963-2.578   c0-1.928-0.963-2.897-2.902-2.897c-4.831,0-12.229,7.405-15.133,11.271c2.903-11.271,2.903-11.271,2.903-11.271   c-7.734,0-7.734,0-7.734,0c-0.964,0.97-0.964,0.97-0.964,0.97c1.928,0,1.928,0,1.928,0c0.965,0,2.903,0,1.939,3.538   c-6.76,21.897-6.76,21.897-6.76,21.897c3.856,0,3.856,0,3.856,0c1.929-4.511,1.929-4.511,1.929-4.511   c1.938-6.76,2.902-8.693,5.806-11.591c1.928-1.93,4.821-5.795,8.362-5.795c0,0,0.964,0,0.964,0.968c0,0.965-0.964,2.897-0.964,2.897   c-3.541,12.556-3.541,12.556-3.541,12.556c-0.965,1.933-0.965,2.897-0.965,3.862c0,0.963,0,1.613,1.613,1.613   c2.893,0,5.796-2.578,7.725-4.511"/>  <path fill="#282F75" d="M309.148,129.522c0,5.795-3.867,16.416-11.271,16.416c-5.795,0-6.759-3.86-6.759-8.688   c0.964-6.764,4.83-16.097,12.554-16.097C308.179,121.154,310.111,124.697,309.148,129.522 M303.672,119.222   c-8.692,0-16.416,7.403-17.386,16.096c0,7.728,3.867,12.236,11.591,12.236c7.404,0,16.098-7.405,16.098-16.098   C314.943,124.697,310.111,119.222,303.672,119.222z"/>  <path fill="#00946F" d="M395.103,125.66c-5.796,0-5.796,0-5.796,0c0-12.234,0-12.234,0-12.234c6.76,0,6.76,0,6.76,0   c2.903,0,7.724,0,7.724,5.795C403.79,125.66,398.97,125.66,395.103,125.66 M395.103,105.696c-16.097,0-16.097,0-16.097,0   c0,40.893,0,40.893,0,40.893c10.301,0,10.301,0,10.301,0c0-13.204,0-13.204,0-13.204c6.76,0,6.76,0,6.76,0   c5.796,0,13.529,0,16.422-7.725c0.964-1.933,1.614-3.541,1.614-6.438s-0.65-5.795-2.578-7.73   C407.656,105.696,401.862,105.696,395.103,105.696z"/>  <path fill="#00946F" d="M463.996,126.625c-2.902,0-4.831-0.965-4.831-1.933c0-0.965,0.964-2.573,3.866-2.573   c5.796,0,8.373,2.573,9.338,2.573c1.928-5.47,1.928-5.47,1.928-5.47c-1.928-1.935-5.47-3.862-11.266-3.862   c-8.688,0-12.555,5.795-12.555,10.301c0,1.93,0.965,3.862,1.929,5.795c0.975,0.964,2.903,1.929,4.831,2.897   c1.929,0,2.893,0,3.857,0.965c1.938,0,3.866,0,5.805,0.964c0,0,0.965,0,0.965,1.934c0,1.927-2.903,2.897-5.795,1.927   c-4.832,0-6.76-0.963-10.627-3.861c-1.939,6.764-1.939,6.764-1.939,6.764c1.939,1.93,5.807,4.508,13.529,4.508   c6.446,0,14.158-3.543,14.158-10.303C477.189,129.522,469.478,127.59,463.996,126.625"/>  <path fill="#00946F" d="M490.72,136.282c0-11.59,0-11.59,0-11.59c5.47,0,5.47,0,5.47,0c1.938-5.47,1.938-5.47,1.938-5.47   c-7.408,0-7.408,0-7.408,0c0-11.591,0-11.591,0-11.591c-8.688,4.831-8.688,4.831-8.688,4.831c0,6.76,0,6.76,0,6.76   c-3.866,0-3.866,0-3.866,0c-1.939,5.47-1.939,5.47-1.939,5.47c5.806,0,5.806,0,5.806,0c0,12.559,0,12.559,0,12.559   c0,2.892,0,4.827,0.965,6.76c1.928,2.578,5.784,2.578,8.688,2.578c2.902,0,2.902,0,2.902,0c2.567-6.446,2.567-6.446,2.567-6.446   c-3.532,0-3.532,0-3.532,0C490.72,140.143,490.72,138.216,490.72,136.282"/>  <path fill="#00946F" d="M431.478,140.148c-5.784,0-7.724-4.831-7.724-8.693c0-3.866,1.939-9.336,7.724-9.336   c4.831,0,6.771,5.471,6.771,9.336C438.248,135.318,436.309,140.148,431.478,140.148 M431.478,115.359   c-9.652,0-16.411,7.723-16.411,16.096c0,8.693,6.759,16.098,16.411,16.098c8.698,0,15.133-7.405,15.133-16.098   C446.61,123.082,440.176,115.359,431.478,115.359z"/>  <path fill="#282F75" d="M413.452,187.794c0-5.795,0-5.795,0-5.795c-2.893,0-2.893,0-2.893,0c0,5.795,0,5.795,0,5.795    M410.56,198.097c2.893,0,2.893,0,2.893,0c0-6.445,0-6.445,0-6.445c-2.893,0-2.893,0-2.893,0V198.097z M419.887,198.097   c0-6.445,0-6.445,0-6.445c-2.893,0-2.893,0-2.893,0c0,6.445,0,6.445,0,6.445H419.887z M419.887,187.794c0-5.795,0-5.795,0-5.795   c-2.893,0-2.893,0-2.893,0c0,5.795,0,5.795,0,5.795H419.887z M429.549,212.591c0-42.181,0-42.181,0-42.181   c14.169,0,14.169,0,14.169,0c-3.542,13.519-3.542,13.519-3.542,13.519c3.542,3.865,6.435,7.723,4.506,11.266   c-1.928,7.733-7.398,6.769-8.373,6.769c-1.928-3.866-1.928-3.866-1.928-3.866s6.759,0.963,7.408-3.867   c0.965-2.578-2.578-5.471-5.48-9.328c1.939-10.625,1.939-10.625,1.939-10.625c-4.832,0-4.832,0-4.832,0c0,38.314,0,38.314,0,38.314   H429.549z M405.729,175.24c-2.902-2.892-2.902-2.892-2.902-2.892c22.867-2.903,22.867-2.903,22.867-2.903   c2.893,2.903,2.893,2.903,2.893,2.903c-11.592,1.928-11.592,1.928-11.592,1.928c0,3.856,0,3.856,0,3.856c10.627,0,10.627,0,10.627,0   c0.965,0.965,0.965,1.928,0,3.866c-3.867,0-3.867,0-3.867,0c0,5.795,0,5.795,0,5.795c3.867,0,3.867,0,3.867,0   c0,3.857,0,3.857,0,3.857c-3.867,0-3.867,0-3.867,0c0,6.445,0,6.445,0,6.445c3.867,0,3.867,0,3.867,0c0,3.866,0,3.866,0,3.866   c-10.627,0-10.627,0-10.627,0c0,4.821,0,4.821,0,4.821c10.627-1.93,10.627-1.93,10.627-1.93c0,3.868,0,3.868,0,3.868   c-21.893,2.893-21.893,2.893-21.893,2.893c-1.938-3.868-1.938-3.868-1.938-3.868c9.662-0.963,9.662-0.963,9.662-0.963   c0-4.821,0-4.821,0-4.821c-9.662,0-9.662,0-9.662,0c0-3.866,0-3.866,0-3.866c2.903,0,2.903,0,2.903,0c0-6.445,0-6.445,0-6.445   c-4.831,0-4.831,0-4.831,0c0-3.857,0-3.857,0-3.857c4.831,0,4.831,0,4.831,0c0-5.795,0-5.795,0-5.795c-2.903,0-2.903,0-2.903,0   c0-3.866,0-3.866,0-3.866c9.662,0,9.662,0,9.662,0c0-3.856,0-3.856,0-3.856L405.729,175.24z"/>  <path fill="#282F75" d="M325.569,192.626c8.363,0,8.363,0,8.363,0c-2.577-1.939-5.471-5.795-7.398-8.697h-0.965 M336.835,194.229   c0,9.662,0,9.662,0,9.662c0,4.831,0,4.831,0,4.831c0,0.965,0,1.928-0.975,2.893c-0.964,0.976-1.928,0.976-2.892,0.976   c-11.266,0-11.266,0-11.266,0c-11.592,0-11.592,0-11.592,0c0-18.361,0-18.361,0-18.361c-0.963,0.965-2.897,1.929-5.47,2.902   c-2.903-3.867-2.903-3.867-2.903-3.867c7.41-1.613,12.236-6.434,16.098-10.301c-13.194,0-13.194,0-13.194,0c0-3.866,0-3.866,0-3.866   c17.062,0,17.062,0,17.062,0c0-4.821,0-4.821,0-4.821c-12.555,0.964-12.555,0.964-12.555,0.964   c-1.935-2.892-1.935-2.892-1.935-2.892c30.586-3.543,30.586-3.543,30.586-3.543c1.929,3.543,1.929,3.543,1.929,3.543   c-14.159,1.928-14.159,1.928-14.159,1.928c0,4.821,0,4.821,0,4.821c18.026,0,18.026,0,18.026,0c0,3.866,0,3.866,0,3.866   c-13.205,0-13.205,0-13.205,0s0,0,0,0.965c0.965,0,0.965,0,0.965,0c2.577,3.865,7.408,7.723,14.167,9.336   c-2.892,3.867-2.892,3.867-2.892,3.867C340.703,196.158,338.764,195.194,336.835,194.229z M332.969,201.963c0-5.805,0-5.805,0-5.805   c-18.994,0-18.994,0-18.994,0c0,4.842,0,4.842,0,4.842c17.381,0,17.381,0,17.381,0c-1.929,3.854-1.929,3.854-1.929,3.854   c-15.452,0-15.452,0-15.452,0c0,3.868,0,3.868,0,3.868c11.595,0,11.595,0,11.595,0c6.435,0,6.435,0,6.435,0   c0.965,0,0.965,0,0.965-0.976V201.963z M321.703,183.929c-1.939,2.902-4.831,6.758-8.693,8.697c8.693,0,8.693,0,8.693,0   C321.703,183.929,321.703,183.929,321.703,183.929z"/>  <polyline fill="#282F75" points="362.584,176.205 355.185,170.41 352.283,173.312 360.656,179.098 362.584,176.205 "/>  <polyline fill="#282F75" points="361.62,185.866 354.221,181.025 352.283,183.929 359.042,188.759 361.62,185.866 "/>  <polyline fill="#282F75" points="351.318,209.688 355.185,210.65 360.656,194.229 357.113,193.265 351.318,209.688 "/>  <path fill="#282F75" d="M370.318,192.626c1.928-1.939,2.893-2.902,2.893-4.832c9.662,0,9.662,0,9.662,0   c0.964,1.93,1.928,2.893,2.893,4.832 M373.211,178.133c8.698,0,8.698,0,8.698,0c0,5.796,0,5.796,0,5.796c-8.698,0-8.698,0-8.698,0   V178.133z M375.139,201c-0.965,3.854-0.965,3.854-0.965,3.854c12.555,0,12.555,0,12.555,0c0-10.625,0-10.625,0-10.625   c1.614,1.929,3.543,3.867,5.472,5.795c2.902-2.893,2.902-2.893,2.902-2.893s-4.831-2.902-8.374-9.338c6.446,0,6.446,0,6.446,0   c0-3.865,0-3.865,0-3.865c-7.409,0-7.409,0-7.409,0c0-5.796,0-5.796,0-5.796c5.47,0,5.47,0,5.47,0c0-3.856,0-3.856,0-3.856   c-5.47,0-5.47,0-5.47,0c0-5.471,0-5.471,0-5.471c-3.856,0-3.856,0-3.856,0c0,5.471,0,5.471,0,5.471c-7.735,0-7.735,0-7.735,0   c0-5.471,0-5.471,0-5.471c-3.855,0-3.855,0-3.855,0c0,5.471,0,5.471,0,5.471c-5.807,0-5.807,0-5.807,0c0,3.856,0,3.856,0,3.856   c5.807,0,5.807,0,5.807,0c0,5.796,0,5.796,0,5.796c-7.734,0-7.734,0-7.734,0c0,3.865,0,3.865,0,3.865c6.77,0,6.77,0,6.77,0   c-2.902,5.471-8.697,9.338-8.697,9.338c2.893,2.893,2.893,2.893,2.893,2.893c1.938-0.965,2.902-2.893,4.841-4.83   c0,13.528,0,13.528,0,13.528c0,0.965,0,1.928,0.964,2.893c0.965,0.976,1.929,0.976,2.893,0.976c17.061,0,17.061,0,17.061,0   c0.965-3.868,0.965-3.868,0.965-3.868c-17.061,0-17.061,0-17.061,0c-0.965,0-0.965,0-0.965-1.938c0-10.626,0-10.626,0-10.626   c11.591,0,11.591,0,11.591,0c0,4.842,0,4.842,0,4.842H375.139z"/>  <path fill="#282F75" d="M490.72,181.999c0,8.688-2.903,14.159-4.832,19.001c2.893,2.892,5.796,6.747,9.662,8.688   c-2.903,2.903-2.903,2.903-2.903,2.903s-4.83-2.903-9.65-8.699c-3.867,5.796-11.592,8.699-11.592,8.699   c-2.577-2.903-2.577-2.903-2.577-2.903c5.47-1.94,8.362-4.833,11.266-8.688c-0.964-1.94-2.903-3.868-4.831-6.771   c0,0.965-0.965,1.929-0.965,1.929c-2.893-0.964-2.893-0.964-2.893-0.964c4.821-8.363,5.785-19.954,5.785-26.389   c3.878,0,3.878,0,3.878,0c0,2.567,0,6.435-0.975,9.327c13.528,0,13.528,0,13.528,0c0,3.866,0,3.866,0,3.866 M477.189,190.687   c1.939,1.939,3.878,4.508,5.807,7.41c2.892-5.471,3.856-11.266,3.856-16.098c-6.76,0-6.76,0-6.76,0   C479.129,184.901,478.165,187.794,477.189,190.687z M464.971,201.963c8.362-1.938,8.362-1.938,8.362-1.938c0,3.867,0,3.867,0,3.867   c-20.928,5.796-20.928,5.796-20.928,5.796c0-26.724,0-26.724,0-26.724c3.867,0,3.867,0,3.867,0c0,21.891,0,21.891,0,21.891   c4.821-0.963,4.821-0.963,4.821-0.963c0-28.651,0-28.651,0-28.651c-8.688,0-8.688,0-8.688,0c0-3.867,0-3.867,0-3.867   c20.928,0,20.928,0,20.928,0c0,3.867,0,3.867,0,3.867c-8.362,0-8.362,0-8.362,0c0,11.591,0,11.591,0,11.591c8.362,0,8.362,0,8.362,0   c-1.929,2.893-1.929,2.893-1.929,2.893c-6.434,0-6.434,0-6.434,0V201.963z"/>  </svg>